<svg xmlns="http://www.w3.org/2000/svg" xmlns:xlink="http://www.w3.org/1999/xlink" viewBox="0 0 5035.82 618.97"><defs><style>.cls-1{fill:url(#linear-gradient);}.cls-2{fill:url(#linear-gradient-2);}.cls-3{fill:#fff;}.cls-4{fill:url(#linear-gradient-3);}</style><linearGradient id="linear-gradient" x1="113.83" y1="94.93" x2="266.57" y2="94.93" gradientUnits="userSpaceOnUse"><stop offset="0" stop-color="#c9c9c9"/><stop offset="1" stop-color="#fff"/></linearGradient><linearGradient id="linear-gradient-2" x1="936.96" y1="525.05" x2="1089.71" y2="525.05" xlink:href="#linear-gradient"/><linearGradient id="linear-gradient-3" x1="314.31" y1="309.85" x2="889.24" y2="309.85" xlink:href="#linear-gradient"/></defs><g id="Layer_3" data-name="Layer 3"><circle class="cls-1" cx="190.2" cy="94.93" r="76.37"/><circle class="cls-2" cx="1013.34" cy="525.05" r="76.37"/><path class="cls-3" d="M873.19,495.78V603.36H404.09C335,592.64,321,532.1,321,532.1c-.62-2.39-1.23-4.7-1.77-7.09-6.4-63.77,98-102.49,98-102.49l171,2.39,224,3.17S869.87,435.86,873.19,495.78Z"/><path class="cls-3" d="M325.39,14H796.93S869.05,24,879,89.44,781.4,194.85,781.4,194.85l-395-5.55s-57.7-7.77-61-67.68Z"/><path class="cls-4" d="M828,261.43c-5.55,5.55-132.57,90.92-239.83,163.48-65.17,44-123,83.37-141.82,97.25-45.81,33.62-12.26,74.64-6.4,81.2.54.62.85.93.85.93a149.73,149.73,0,0,1-36.71-.93C335,592.64,321,532.1,321,532.1c-.62-2.39-1.23-4.7-1.77-7.09C294.43,418.36,372,354.58,372,354.58s129-84.44,243-162C698.75,135.42,774.32,82,784.74,68.33,809.1,36.17,770.31,16.2,770.31,16.2c16.66-3.32,36.63,0,36.63,0s.31.08.78.15a96,96,0,0,1,37.09,17.51l2,1.54A104.54,104.54,0,0,1,867.4,57.53a5.73,5.73,0,0,0,.54.85c9.33,14,16.89,32.39,20,56.61C899,202.59,836.87,252.56,828,261.43Z"/><path class="cls-3" d="M1286.64,312.28V275.73L1476.53,43.82l6.31,20.59H1289.58V18.19H1532V54.74l-189.9,231.91-6.72-20.58h202.08v46.21Z"/><path class="cls-3" d="M1642.06,266.49h166v45.79H1587.45V18.19h214.68V64H1642.06Zm-4.2-126h146.21v45H1637.86Z"/><path class="cls-3" d="M1868.93,312.28V18.19h121q39.08,0,67,12.61T2100,66.93q15.14,23.53,15.13,55.87T2100,178.47q-15.12,23.33-43.06,35.71t-67,12.4h-90.75l24.37-24.79V312.28Zm54.62-104.61-24.37-26h88.23q36.12,0,54.41-15.54t18.27-43.28q0-28.14-18.27-43.27t-54.41-15.12h-88.23l24.37-26.89Zm137.8,104.61L1987,205.57h58.4l74.78,106.71Z"/><path class="cls-3" d="M2313.42,316.48q-34.46,0-63.23-11.13a151,151,0,0,1-50.2-31.51,142.2,142.2,0,0,1-33.19-48.1Q2155,198,2155,165.24t11.76-60.5a140.84,140.84,0,0,1,33.4-48.11,153.17,153.17,0,0,1,50.62-31.51q29-11.11,63.44-11.13,37.39,0,67.43,12.18a132.29,132.29,0,0,1,50.63,35.72L2397.87,95.5q-17.23-17.22-37.18-25.42t-43.91-8.19a118.85,118.85,0,0,0-42.85,7.56,99,99,0,0,0-34,21.42,96,96,0,0,0-22.06,32.78,108.35,108.35,0,0,0-7.77,41.59,107.22,107.22,0,0,0,7.77,41.17A98,98,0,0,0,2273.51,261q19.32,7.56,42.85,7.56a130.28,130.28,0,0,0,42.23-6.93q20.37-6.93,38.86-23.32l31.09,40.75A161.21,161.21,0,0,1,2375,307,206.64,206.64,0,0,1,2313.42,316.48ZM2376.86,272V161.88h51.68V279.09Z"/><path class="cls-3" d="M2458.78,312.28,2591.12,18.19h53.78l132.76,294.09h-57.14L2606.67,47.18h21.85l-113.44,265.1Zm60.92-68.06,14.71-42.85h158.81l14.7,42.85Z"/><path class="cls-3" d="M2868.83,312.28,2771.36,18.19h56.72l87,265.94H2886.9l90.33-265.94h50.41l87.81,265.94h-27.31l89.07-265.94h52.09l-97.47,294.09h-58L2993.61,72.39h15.13l-81.51,239.89Z"/><path class="cls-3" d="M3532.21,316.48q-33.61,0-62.39-11.13a148.57,148.57,0,0,1-50-31.51,143.51,143.51,0,0,1-33-48.1q-11.78-27.74-11.77-60.5t11.77-60.5A142.1,142.1,0,0,1,3420,56.63a151.7,151.7,0,0,1,50-31.51Q3498.59,14,3532.63,14q36.13,0,66,12.39A130.88,130.88,0,0,1,3649,63.15l-35.29,33.19a103.36,103.36,0,0,0-78.57-34.45q-23.12,0-42.22,7.56a97,97,0,0,0-55,54.2,108.35,108.35,0,0,0-7.77,41.59,108.39,108.39,0,0,0,7.77,41.59,97,97,0,0,0,55,54.2q19.11,7.56,42.22,7.56A106,106,0,0,0,3578,260q19.76-8.61,35.72-26.26L3649,267.33a134.67,134.67,0,0,1-50.42,36.55Q3568.75,316.48,3532.21,316.48Z"/><path class="cls-3" d="M3701.52,312.28V18.19h54.62V266.07H3909.9v46.21Z"/><path class="cls-3" d="M4085.52,316.48q-34.45,0-63.44-11.34a153.27,153.27,0,0,1-50.41-31.72,142.59,142.59,0,0,1-33.19-47.89q-11.78-27.51-11.77-60.29T3938.48,105a142.73,142.73,0,0,1,33.19-47.9,153.59,153.59,0,0,1,50.41-31.72q29-11.34,63-11.34,34.44,0,63.23,11.34a154.26,154.26,0,0,1,50.21,31.72,143.16,143.16,0,0,1,33.19,47.9q11.76,27.52,11.76,60.29t-11.76,60.5a140.28,140.28,0,0,1-33.19,47.89,155.93,155.93,0,0,1-50.21,31.51Q4119.55,316.48,4085.52,316.48Zm-.42-47.89a109.88,109.88,0,0,0,41.17-7.56,94.84,94.84,0,0,0,32.78-21.64,101.9,101.9,0,0,0,21.63-32.77q7.77-18.69,7.77-41.38t-7.77-41.38a102.16,102.16,0,0,0-21.63-32.78,95,95,0,0,0-32.78-21.63,109.88,109.88,0,0,0-41.17-7.56,108.23,108.23,0,0,0-41,7.56,97.52,97.52,0,0,0-32.77,21.63,100.35,100.35,0,0,0-21.85,32.78q-7.77,18.69-7.77,41.38a107.22,107.22,0,0,0,7.77,41.17,101.46,101.46,0,0,0,21.64,33A94.8,94.8,0,0,0,4043.93,261,109.84,109.84,0,0,0,4085.1,268.59Z"/><path class="cls-3" d="M4427.93,316.48q-60.51,0-94.74-34T4299,184.14V18.19h54.61V182q0,45.38,19.54,66t55.25,20.59q35.7,0,55-20.59t19.33-66V18.19h53.78v166q0,64.29-34.24,98.31T4427.93,316.48Z"/><path class="cls-3" d="M4632.94,312.28V18.19H4761.5q47.9,0,84,18.49t56.3,51.25Q4922,120.71,4922,165.24q0,44.12-20.16,77.09t-56.3,51.47q-36.14,18.49-84,18.48Zm54.62-46.21H4759q33.18,0,57.35-12.61a90.93,90.93,0,0,0,37.39-35.29Q4867,195.49,4867,165.24q0-30.66-13.24-53.15A91.42,91.42,0,0,0,4816.33,77q-24.16-12.6-57.35-12.6h-71.42Z"/><path class="cls-3" d="M1285.42,603.29l76.35-169.66h31l76.59,169.66h-33l-65.68-152.94h12.6L1317.9,603.29ZM1320.57,564l8.48-24.72h91.62l8.48,24.72Z"/><path class="cls-3" d="M1540.4,605q-16.49,0-29.09-6.18a44.33,44.33,0,0,1-19.63-18.9q-7-12.74-7-32.12V473.86H1515v69.8q0,17.46,7.87,26.06t22.42,8.6a37.65,37.65,0,0,0,18.54-4.36,30.34,30.34,0,0,0,12.36-13.09q4.48-8.73,4.49-21.57V473.86h30.29V603.29h-28.84V568.38l5.09,10.67A44.58,44.58,0,0,1,1568,598.32,58.26,58.26,0,0,1,1540.4,605Z"/><path class="cls-3" d="M1633.47,498.1V473.86h86.28V498.1ZM1699.39,605q-21.33,0-33-11t-11.64-32.59V445.26h30.3V560.63q0,9.21,4.73,14.3T1703,580q10.17,0,17-5.33l8.48,21.57a35.43,35.43,0,0,1-13.08,6.54A58.67,58.67,0,0,1,1699.39,605Z"/><path class="cls-3" d="M1753.44,603.29V423.45h30.29v85.31l-6.54-10.66a45.91,45.91,0,0,1,19.75-19q13-6.66,29.94-6.66a61.74,61.74,0,0,1,27.75,6.06A44.42,44.42,0,0,1,1873.89,497q7,12.48,7,32.11v74.17h-30.29V533q0-17.21-8.12-25.69t-22.66-8.48a39.76,39.76,0,0,0-18.91,4.36,29.94,29.94,0,0,0-12.72,13q-4.48,8.61-4.49,21.7v65.44Z"/><path class="cls-3" d="M1980.53,605q-21.57,0-37.68-8.6a62.28,62.28,0,0,1-25-23.63q-8.85-15-8.84-34.18,0-19.38,8.6-34.29a61.71,61.71,0,0,1,23.75-23.39q15.15-8.47,34.54-8.48,18.9,0,33.69,8.24a59.74,59.74,0,0,1,23.27,23.26q8.47,15,8.48,35.39c0,1.3,0,2.75-.12,4.36s-.21,3.15-.37,4.61H1933V528.15h91.86l-11.88,6.3a37.23,37.23,0,0,0-4.6-19.63,35.66,35.66,0,0,0-13.21-13.33,37.76,37.76,0,0,0-19.27-4.85,38.22,38.22,0,0,0-19.51,4.85,34.41,34.41,0,0,0-13.09,13.45q-4.72,8.61-4.73,20.24V540a39.5,39.5,0,0,0,5.34,20.6,35.49,35.49,0,0,0,15,13.81,49.11,49.11,0,0,0,22.3,4.85,53.82,53.82,0,0,0,19.63-3.39,41.8,41.8,0,0,0,15.52-10.67l16.23,18.67a57.11,57.11,0,0,1-21.93,15.63Q1997.5,605,1980.53,605Z"/><path class="cls-3" d="M2070.45,603.29V473.86h28.84v34.9l-5.09-10.66a45.94,45.94,0,0,1,19.76-19q13-6.66,29.93-6.66a61.71,61.71,0,0,1,27.75,6.06A44.44,44.44,0,0,1,2190.91,497q7,12.48,7,32.11v74.17h-30.3V533q0-17.21-8.12-25.69t-22.66-8.48a39.74,39.74,0,0,0-18.9,4.36,29.91,29.91,0,0,0-12.73,13q-4.49,8.61-4.48,21.7v65.44Z"/><path class="cls-3" d="M2219.27,498.1V473.86h86.28V498.1ZM2285.19,605q-21.33,0-33-11t-11.64-32.59V445.26h30.3V560.63q0,9.21,4.73,14.3t13.21,5.09q10.17,0,17-5.33l8.49,21.57a35.56,35.56,0,0,1-13.09,6.54A58.67,58.67,0,0,1,2285.19,605Z"/><path class="cls-3" d="M2354.51,452.53a19.09,19.09,0,0,1-13.94-5.33,18,18,0,0,1,0-25.81q5.46-5.22,13.94-5.21t13.93,5a16.15,16.15,0,0,1,5.46,12.48,18.49,18.49,0,0,1-5.34,13.45Q2363.24,452.53,2354.51,452.53Zm-15.27,150.76V473.86h30.29V603.29Z"/><path class="cls-3" d="M2468.66,605q-20.35,0-36.23-8.6a63.53,63.53,0,0,1-24.85-23.63q-9-15-9-34.18,0-19.38,9-34.29a63,63,0,0,1,24.85-23.39q15.87-8.47,36.23-8.48,18.9,0,33.33,7.63a50.79,50.79,0,0,1,21.93,22.42L2500.65,516a37.2,37.2,0,0,0-14.18-13.57,38.41,38.41,0,0,0-18-4.36A41.52,41.52,0,0,0,2448.3,503a34.84,34.84,0,0,0-14.06,13.93q-5.09,9.09-5.09,21.69t5.09,21.7a34.84,34.84,0,0,0,14.06,13.93,41.52,41.52,0,0,0,20.12,4.85,38.53,38.53,0,0,0,18-4.36,37.15,37.15,0,0,0,14.18-13.58l23.27,13.58A52.48,52.48,0,0,1,2502,597.11Q2487.56,605,2468.66,605Z"/><path class="cls-3" d="M2589.12,605q-14.55,0-25.45-5a39.31,39.31,0,0,1-16.85-13.81,35.05,35.05,0,0,1-5.94-20,37.5,37.5,0,0,1,5.22-19.63q5.21-8.73,17.08-13.81t31.51-5.09h37.57v20.11h-35.39q-15.51,0-20.84,5A16.06,16.06,0,0,0,2570.7,565a15.44,15.44,0,0,0,6.54,13.09q6.54,4.84,18.18,4.85a39.39,39.39,0,0,0,20-5.09,28.89,28.89,0,0,0,12.73-15l5.09,18.18a33.67,33.67,0,0,1-15.64,17.69Q2606.32,605,2589.12,605Zm40.71-1.69V577.11l-1.69-5.57V525.73q0-13.34-8-20.72t-24.24-7.4a69.4,69.4,0,0,0-21.45,3.4,52.63,52.63,0,0,0-17.81,9.45l-11.88-22.06a71.77,71.77,0,0,1,24.85-12,111.3,111.3,0,0,1,29.93-4q28.11,0,43.5,13.45t15.39,41.56v75.87Z"/><path class="cls-3" d="M2680,498.1V473.86h86.29V498.1ZM2745.93,605q-21.33,0-33-11t-11.64-32.59V445.26h30.3V560.63q0,9.21,4.72,14.3t13.21,5.09q10.18,0,17-5.33l8.48,21.57a35.48,35.48,0,0,1-13.09,6.54A58.55,58.55,0,0,1,2745.93,605Z"/><path class="cls-3" d="M2853.78,605q-19.87,0-35.38-8.6a64.18,64.18,0,0,1-24.48-23.63q-9-15-9-34.18,0-19.38,9-34.29a63.65,63.65,0,0,1,24.48-23.39q15.51-8.47,35.38-8.48,20.11,0,35.75,8.48A62.9,62.9,0,0,1,2914,504.16q8.85,14.77,8.85,34.41,0,19.15-8.85,34.18a63.15,63.15,0,0,1-24.48,23.63Q2873.9,605,2853.78,605Zm0-25.93a40.18,40.18,0,0,0,19.88-4.85,34.24,34.24,0,0,0,13.69-14.06q5-9.2,5-21.57,0-12.6-5-21.69A34.46,34.46,0,0,0,2873.66,503a42.41,42.41,0,0,0-39.39,0,35.49,35.49,0,0,0-13.69,13.93q-5.09,9.09-5.09,21.69,0,12.36,5.09,21.57a35.25,35.25,0,0,0,13.69,14.06A39,39,0,0,0,2853.78,579.05Z"/><path class="cls-3" d="M2951.94,603.29V473.86h28.84v35.63l-3.39-10.42a40.92,40.92,0,0,1,18.3-19.88q12.48-6.78,31.14-6.78v28.84a22.55,22.55,0,0,0-3.63-.61c-1.14-.08-2.27-.12-3.4-.12q-17.21,0-27.38,10.06t-10.18,29.93v62.78Z"/></g></svg>