<svg xmlns="http://www.w3.org/2000/svg" xmlns:xlink="http://www.w3.org/1999/xlink" viewBox="0 0 2000 2000"><defs><style>.cls-1{fill:url(#linear-gradient);}.cls-2{fill:url(#linear-gradient-2);}.cls-3{fill:#0b429b;}.cls-4{fill:#1672f7;}.cls-5{fill:url(#linear-gradient-3);}</style><linearGradient id="linear-gradient" x1="208.26" y1="651.86" x2="456.1" y2="651.86" gradientUnits="userSpaceOnUse"><stop offset="0" stop-color="#1672f7"/><stop offset="1" stop-color="#0b429b"/></linearGradient><linearGradient id="linear-gradient-2" x1="1543.9" y1="1349.78" x2="1791.74" y2="1349.78" xlink:href="#linear-gradient"/><linearGradient id="linear-gradient-3" x1="533.57" y1="1000.59" x2="1466.46" y2="1000.59" xlink:href="#linear-gradient"/></defs><g id="Layer_3" data-name="Layer 3"><circle class="cls-1" cx="332.18" cy="651.86" r="123.92"/><circle class="cls-2" cx="1667.82" cy="1349.78" r="123.92"/><path class="cls-3" d="M1440.41,1302.29v174.55H679.25c-112.12-17.39-134.89-115.62-134.89-115.62-1-3.88-2-7.63-2.88-11.51-10.38-103.48,159-166.3,159-166.3l277.41,3.88,363.5,5.13S1435,1205.06,1440.41,1302.29Z"/><path class="cls-4" d="M551.54,520.53h765.14s117,16.2,133.22,122.42-158.43,171-158.43,171l-640.91-9s-93.62-12.61-99-109.82Z"/><path class="cls-5" d="M1367.09,922c-9,9-215.1,147.52-389.16,265.27-105.73,71.45-199.58,135.27-230.11,157.79-74.33,54.56-19.9,121.13-10.39,131.76.88,1,1.38,1.5,1.38,1.5a243.15,243.15,0,0,1-59.56-1.5c-112.12-17.39-134.89-115.62-134.89-115.62-1-3.88-2-7.63-2.88-11.51-40.17-173.06,85.71-276.54,85.71-276.54s209.35-137,394.29-262.89c135.89-92.72,258.52-179.44,275.41-201.59,39.54-52.18-23.4-84.58-23.4-84.58,27-5.39,59.44,0,59.44,0s.49.12,1.25.25c6,1.25,32.53,7.38,60.18,28.4l3.26,2.5A170.15,170.15,0,0,1,1431,591.17a8.75,8.75,0,0,0,.87,1.38c15.14,22.65,27.41,52.55,32.41,91.85C1482.33,826.54,1381.48,907.63,1367.09,922Z"/></g></svg>