<?xml version="1.0" encoding="UTF-8"?>
<svg xmlns="http://www.w3.org/2000/svg" xmlns:xlink="http://www.w3.org/1999/xlink" width="220px" height="27px" viewBox="0 0 219 27" version="1.1">
<defs>
<linearGradient id="linear0" gradientUnits="userSpaceOnUse" x1="113.830002" y1="94.93" x2="266.570007" y2="94.93" gradientTransform="matrix(0.0434885,0,0,0.0436203,0,0.000171929)">
<stop offset="0" style="stop-color:rgb(78.823529%,78.823529%,78.823529%);stop-opacity:1;"/>
<stop offset="1" style="stop-color:rgb(100%,100%,100%);stop-opacity:1;"/>
</linearGradient>
<linearGradient id="linear1" gradientUnits="userSpaceOnUse" x1="936.960022" y1="525.049988" x2="1089.709961" y2="525.049988" gradientTransform="matrix(0.0434885,0,0,0.0436203,0,0.000171929)">
<stop offset="0" style="stop-color:rgb(78.823529%,78.823529%,78.823529%);stop-opacity:1;"/>
<stop offset="1" style="stop-color:rgb(100%,100%,100%);stop-opacity:1;"/>
</linearGradient>
<linearGradient id="linear2" gradientUnits="userSpaceOnUse" x1="314.309998" y1="309.850006" x2="889.23999" y2="309.850006" gradientTransform="matrix(0.0434885,0,0,0.0436203,0,0.000171929)">
<stop offset="0" style="stop-color:rgb(78.823529%,78.823529%,78.823529%);stop-opacity:1;"/>
<stop offset="1" style="stop-color:rgb(100%,100%,100%);stop-opacity:1;"/>
</linearGradient>
</defs>
<g id="surface1">
<path style=" stroke:none;fill-rule:nonzero;fill:url(#linear0);" d="M 11.59375 4.140625 C 11.59375 2.300781 10.105469 0.808594 8.273438 0.808594 C 6.4375 0.808594 4.949219 2.300781 4.949219 4.140625 C 4.949219 5.980469 6.4375 7.472656 8.273438 7.472656 C 10.105469 7.472656 11.59375 5.980469 11.59375 4.140625 Z M 11.59375 4.140625 "/>
<path style=" stroke:none;fill-rule:nonzero;fill:url(#linear1);" d="M 47.390625 22.902344 C 47.390625 21.0625 45.902344 19.570312 44.070312 19.570312 C 42.234375 19.570312 40.746094 21.0625 40.746094 22.902344 C 40.746094 24.742188 42.234375 26.234375 44.070312 26.234375 C 45.902344 26.234375 47.390625 24.742188 47.390625 22.902344 Z M 47.390625 22.902344 "/>
<path style=" stroke:none;fill-rule:nonzero;fill:rgb(100%,100%,100%);fill-opacity:1;" d="M 37.972656 21.625 L 37.972656 26.320312 L 17.574219 26.320312 C 14.570312 25.851562 13.960938 23.210938 13.960938 23.210938 C 13.933594 23.105469 13.90625 23.003906 13.882812 22.902344 C 13.605469 20.121094 18.144531 18.429688 18.144531 18.429688 L 25.582031 18.535156 L 35.324219 18.671875 C 35.324219 18.671875 37.828125 19.011719 37.972656 21.625 Z M 37.972656 21.625 "/>
<path style=" stroke:none;fill-rule:nonzero;fill:rgb(100%,100%,100%);fill-opacity:1;" d="M 14.152344 0.609375 L 34.65625 0.609375 C 34.65625 0.609375 37.792969 1.046875 38.226562 3.902344 C 38.660156 6.757812 33.980469 8.5 33.980469 8.5 L 16.804688 8.257812 C 16.804688 8.257812 14.292969 7.917969 14.152344 5.304688 Z M 14.152344 0.609375 "/>
<path style=" stroke:none;fill-rule:nonzero;fill:url(#linear2);" d="M 36.007812 11.402344 C 35.765625 11.644531 30.242188 15.371094 25.578125 18.535156 C 22.746094 20.453125 20.230469 22.171875 19.410156 22.777344 C 17.417969 24.242188 18.878906 26.03125 19.132812 26.320312 C 19.15625 26.347656 19.167969 26.359375 19.167969 26.359375 C 18.636719 26.410156 18.101562 26.398438 17.574219 26.320312 C 14.570312 25.851562 13.960938 23.210938 13.960938 23.210938 C 13.933594 23.105469 13.90625 23.003906 13.882812 22.902344 C 12.804688 18.25 16.175781 15.46875 16.175781 15.46875 C 16.175781 15.46875 21.789062 11.785156 26.746094 8.402344 C 30.386719 5.90625 33.675781 3.578125 34.128906 2.980469 C 35.1875 1.578125 33.5 0.707031 33.5 0.707031 C 34.222656 0.5625 35.09375 0.707031 35.09375 0.707031 C 35.09375 0.707031 35.105469 0.710938 35.125 0.714844 C 35.710938 0.847656 36.261719 1.109375 36.738281 1.476562 L 36.828125 1.542969 C 37.171875 1.820312 37.472656 2.144531 37.722656 2.507812 C 37.730469 2.523438 37.738281 2.535156 37.746094 2.546875 C 38.152344 3.15625 38.480469 3.960938 38.613281 5.015625 C 39.097656 8.835938 36.394531 11.015625 36.007812 11.402344 Z M 36.007812 11.402344 "/>
<path style=" stroke:none;fill-rule:nonzero;fill:rgb(100%,100%,100%);fill-opacity:1;" d="M 55.953125 13.621094 L 55.953125 12.027344 L 64.210938 1.910156 L 64.488281 2.808594 L 56.082031 2.808594 L 56.082031 0.792969 L 66.625 0.792969 L 66.625 2.386719 L 58.367188 12.503906 L 58.074219 11.605469 L 66.863281 11.605469 L 66.863281 13.621094 Z M 55.953125 13.621094 "/>
<path style=" stroke:none;fill-rule:nonzero;fill:rgb(100%,100%,100%);fill-opacity:1;" d="M 71.410156 11.625 L 78.628906 11.625 L 78.628906 13.621094 L 69.035156 13.621094 L 69.035156 0.792969 L 78.371094 0.792969 L 78.371094 2.792969 L 71.410156 2.792969 Z M 71.226562 6.128906 L 77.585938 6.128906 L 77.585938 8.089844 L 71.226562 8.089844 Z M 71.226562 6.128906 "/>
<path style=" stroke:none;fill-rule:nonzero;fill:rgb(100%,100%,100%);fill-opacity:1;" d="M 81.277344 13.621094 L 81.277344 0.792969 L 86.539062 0.792969 C 87.671875 0.792969 88.644531 0.976562 89.453125 1.34375 C 90.261719 1.710938 90.886719 2.234375 91.324219 2.917969 C 91.765625 3.605469 91.984375 4.417969 91.984375 5.355469 C 91.984375 6.296875 91.765625 7.105469 91.324219 7.785156 C 90.886719 8.464844 90.261719 8.984375 89.453125 9.34375 C 88.644531 9.703125 87.671875 9.882812 86.539062 9.882812 L 82.59375 9.882812 L 83.652344 8.800781 L 83.652344 13.621094 Z M 83.652344 9.058594 L 82.59375 7.925781 L 86.429688 7.925781 C 87.476562 7.925781 88.265625 7.699219 88.796875 7.246094 C 89.324219 6.792969 89.589844 6.164062 89.589844 5.359375 C 89.589844 4.539062 89.324219 3.910156 88.796875 3.472656 C 88.265625 3.03125 87.476562 2.8125 86.429688 2.8125 L 82.59375 2.8125 L 83.652344 1.640625 Z M 89.644531 13.621094 L 86.410156 8.96875 L 88.953125 8.96875 L 92.203125 13.621094 Z M 89.644531 13.621094 "/>
<path style=" stroke:none;fill-rule:nonzero;fill:rgb(100%,100%,100%);fill-opacity:1;" d="M 100.605469 13.804688 C 99.609375 13.804688 98.691406 13.644531 97.855469 13.320312 C 97.046875 13.011719 96.304688 12.542969 95.675781 11.945312 C 95.054688 11.355469 94.5625 10.640625 94.230469 9.847656 C 93.886719 9.039062 93.71875 8.160156 93.71875 7.207031 C 93.71875 6.253906 93.886719 5.375 94.230469 4.570312 C 94.5625 3.773438 95.054688 3.058594 95.679688 2.46875 C 96.320312 1.871094 97.066406 1.40625 97.882812 1.097656 C 98.722656 0.773438 99.644531 0.609375 100.640625 0.609375 C 101.726562 0.609375 102.703125 0.789062 103.574219 1.140625 C 104.421875 1.480469 105.175781 2.011719 105.777344 2.699219 L 104.28125 4.164062 C 103.78125 3.664062 103.242188 3.296875 102.664062 3.058594 C 102.085938 2.820312 101.449219 2.699219 100.753906 2.699219 C 100.117188 2.695312 99.484375 2.804688 98.890625 3.03125 C 98.339844 3.238281 97.835938 3.554688 97.410156 3.964844 C 96.996094 4.367188 96.667969 4.855469 96.453125 5.394531 C 96.222656 5.96875 96.105469 6.585938 96.113281 7.207031 C 96.109375 7.824219 96.222656 8.433594 96.453125 9.003906 C 96.894531 10.097656 97.769531 10.960938 98.871094 11.386719 C 99.429688 11.605469 100.050781 11.714844 100.734375 11.714844 C 101.359375 11.714844 101.980469 11.613281 102.570312 11.414062 C 103.160156 11.210938 103.726562 10.871094 104.261719 10.394531 L 105.613281 12.171875 C 104.921875 12.722656 104.128906 13.136719 103.285156 13.390625 C 102.417969 13.664062 101.515625 13.804688 100.605469 13.804688 Z M 103.367188 11.863281 L 103.367188 7.0625 L 105.613281 7.0625 L 105.613281 12.175781 Z M 103.367188 11.863281 "/>
<path style=" stroke:none;fill-rule:nonzero;fill:rgb(100%,100%,100%);fill-opacity:1;" d="M 106.929688 13.621094 L 112.683594 0.792969 L 115.023438 0.792969 L 120.796875 13.621094 L 118.3125 13.621094 L 113.359375 2.058594 L 114.308594 2.058594 L 109.375 13.621094 Z M 109.578125 10.652344 L 110.21875 8.785156 L 117.125 8.785156 L 117.761719 10.652344 Z M 109.578125 10.652344 "/>
<path style=" stroke:none;fill-rule:nonzero;fill:rgb(100%,100%,100%);fill-opacity:1;" d="M 124.761719 13.621094 L 120.523438 0.792969 L 122.988281 0.792969 L 126.773438 12.394531 L 125.546875 12.394531 L 129.476562 0.792969 L 131.667969 0.792969 L 135.484375 12.394531 L 134.296875 12.394531 L 138.171875 0.792969 L 140.4375 0.792969 L 136.199219 13.621094 L 133.675781 13.621094 L 130.1875 3.15625 L 130.84375 3.15625 L 127.300781 13.621094 Z M 124.761719 13.621094 "/>
<path style=" stroke:none;fill-rule:nonzero;fill:rgb(100%,100%,100%);fill-opacity:1;" d="M 153.609375 13.804688 C 152.636719 13.804688 151.730469 13.644531 150.898438 13.320312 C 150.085938 13.011719 149.347656 12.542969 148.722656 11.945312 C 148.105469 11.351562 147.617188 10.636719 147.289062 9.847656 C 146.945312 9.039062 146.777344 8.160156 146.777344 7.207031 C 146.777344 6.253906 146.945312 5.375 147.289062 4.570312 C 147.617188 3.777344 148.109375 3.0625 148.730469 2.46875 C 149.359375 1.875 150.097656 1.40625 150.90625 1.097656 C 151.734375 0.773438 152.640625 0.609375 153.628906 0.609375 C 154.675781 0.609375 155.632812 0.789062 156.5 1.152344 C 157.347656 1.5 158.097656 2.050781 158.6875 2.753906 L 157.15625 4.203125 C 156.285156 3.230469 155.039062 2.679688 153.738281 2.699219 C 153.066406 2.699219 152.457031 2.808594 151.902344 3.03125 C 150.8125 3.453125 149.945312 4.308594 149.511719 5.394531 C 149.28125 5.96875 149.164062 6.585938 149.171875 7.207031 C 149.164062 7.828125 149.28125 8.445312 149.511719 9.023438 C 149.945312 10.109375 150.8125 10.964844 151.902344 11.386719 C 152.457031 11.605469 153.066406 11.714844 153.738281 11.714844 C 154.378906 11.722656 155.011719 11.59375 155.601562 11.339844 C 156.175781 11.089844 156.691406 10.710938 157.15625 10.195312 L 158.6875 11.660156 C 158.09375 12.355469 157.339844 12.902344 156.496094 13.253906 C 155.632812 13.621094 154.667969 13.804688 153.609375 13.804688 Z M 153.609375 13.804688 "/>
<path style=" stroke:none;fill-rule:nonzero;fill:rgb(100%,100%,100%);fill-opacity:1;" d="M 160.972656 13.621094 L 160.972656 0.792969 L 163.347656 0.792969 L 163.347656 11.605469 L 170.035156 11.605469 L 170.035156 13.621094 Z M 160.972656 13.621094 "/>
<path style=" stroke:none;fill-rule:nonzero;fill:rgb(100%,100%,100%);fill-opacity:1;" d="M 177.671875 13.804688 C 176.675781 13.804688 175.753906 13.640625 174.914062 13.308594 C 174.101562 12.996094 173.355469 12.527344 172.722656 11.925781 C 172.101562 11.335938 171.609375 10.625 171.277344 9.835938 C 170.9375 9.039062 170.765625 8.160156 170.765625 7.207031 C 170.765625 6.253906 170.9375 5.378906 171.277344 4.582031 C 171.609375 3.792969 172.101562 3.082031 172.722656 2.492188 C 173.355469 1.890625 174.101562 1.421875 174.914062 1.105469 C 175.753906 0.777344 176.667969 0.613281 177.652344 0.613281 C 178.652344 0.613281 179.570312 0.777344 180.402344 1.105469 C 181.214844 1.421875 181.957031 1.890625 182.585938 2.492188 C 183.207031 3.082031 183.699219 3.792969 184.03125 4.582031 C 184.371094 5.378906 184.542969 6.257812 184.542969 7.210938 C 184.542969 8.164062 184.371094 9.042969 184.03125 9.847656 C 183.699219 10.640625 183.207031 11.351562 182.585938 11.9375 C 181.953125 12.53125 181.210938 13 180.402344 13.3125 C 179.570312 13.640625 178.660156 13.804688 177.671875 13.804688 Z M 177.65625 11.714844 C 178.265625 11.722656 178.875 11.609375 179.445312 11.386719 C 179.980469 11.175781 180.464844 10.851562 180.871094 10.441406 C 181.273438 10.03125 181.59375 9.546875 181.8125 9.011719 C 182.035156 8.46875 182.148438 7.867188 182.148438 7.207031 C 182.148438 6.546875 182.035156 5.945312 181.8125 5.402344 C 181.59375 4.871094 181.273438 4.382812 180.871094 3.972656 C 180.464844 3.5625 179.980469 3.242188 179.445312 3.03125 C 178.875 2.804688 178.265625 2.695312 177.65625 2.699219 C 177.042969 2.691406 176.4375 2.804688 175.871094 3.03125 C 175.335938 3.242188 174.851562 3.566406 174.445312 3.972656 C 174.039062 4.382812 173.714844 4.867188 173.496094 5.402344 C 173.269531 5.945312 173.160156 6.546875 173.160156 7.207031 C 173.152344 7.824219 173.265625 8.433594 173.496094 9.003906 C 173.714844 9.539062 174.03125 10.03125 174.4375 10.441406 C 174.84375 10.855469 175.328125 11.175781 175.863281 11.386719 C 176.433594 11.609375 177.042969 11.722656 177.65625 11.714844 Z M 177.65625 11.714844 "/>
<path style=" stroke:none;fill-rule:nonzero;fill:rgb(100%,100%,100%);fill-opacity:1;" d="M 192.5625 13.804688 C 190.808594 13.804688 189.4375 13.3125 188.445312 12.320312 C 187.453125 11.332031 186.957031 9.902344 186.957031 8.03125 L 186.957031 0.792969 L 189.332031 0.792969 L 189.332031 7.9375 C 189.332031 9.257812 189.613281 10.21875 190.179688 10.816406 C 190.746094 11.417969 191.550781 11.71875 192.585938 11.714844 C 193.621094 11.714844 194.417969 11.417969 194.976562 10.816406 C 195.535156 10.21875 195.816406 9.257812 195.816406 7.9375 L 195.816406 0.792969 L 198.15625 0.792969 L 198.15625 8.035156 C 198.15625 9.902344 197.660156 11.332031 196.667969 12.324219 C 195.671875 13.3125 194.304688 13.804688 192.5625 13.804688 Z M 192.5625 13.804688 "/>
<path style=" stroke:none;fill-rule:nonzero;fill:rgb(100%,100%,100%);fill-opacity:1;" d="M 201.480469 13.621094 L 201.480469 0.792969 L 207.070312 0.792969 C 208.460938 0.792969 209.675781 1.0625 210.722656 1.601562 C 211.769531 2.136719 212.585938 2.882812 213.171875 3.835938 C 213.757812 4.789062 214.050781 5.914062 214.050781 7.207031 C 214.050781 8.492188 213.757812 9.613281 213.171875 10.570312 C 212.589844 11.53125 211.773438 12.277344 210.726562 12.816406 C 209.675781 13.351562 208.460938 13.621094 207.070312 13.621094 Z M 203.855469 11.605469 L 206.960938 11.605469 C 207.921875 11.605469 208.753906 11.421875 209.457031 11.054688 C 210.132812 10.710938 210.699219 10.175781 211.082031 9.515625 C 211.464844 8.855469 211.660156 8.085938 211.660156 7.207031 C 211.660156 6.316406 211.464844 5.542969 211.082031 4.890625 C 210.695312 4.234375 210.132812 3.703125 209.453125 3.359375 C 208.753906 2.992188 207.921875 2.808594 206.960938 2.808594 L 203.855469 2.808594 Z M 203.855469 11.605469 "/>
<path style=" stroke:none;fill-rule:nonzero;fill:rgb(100%,100%,100%);fill-opacity:1;" d="M 55.902344 26.316406 L 59.222656 18.914062 L 60.570312 18.914062 L 63.898438 26.316406 L 62.464844 26.316406 L 59.609375 19.644531 L 60.15625 19.644531 L 57.3125 26.316406 Z M 57.429688 24.601562 L 57.796875 23.523438 L 61.78125 23.523438 L 62.152344 24.601562 Z M 57.429688 24.601562 "/>
<path style=" stroke:none;fill-rule:nonzero;fill:rgb(100%,100%,100%);fill-opacity:1;" d="M 66.988281 26.390625 C 66.511719 26.390625 66.089844 26.300781 65.722656 26.121094 C 65.359375 25.941406 65.0625 25.65625 64.871094 25.296875 C 64.667969 24.925781 64.566406 24.457031 64.566406 23.894531 L 64.566406 20.671875 L 65.886719 20.671875 L 65.886719 23.714844 C 65.886719 24.222656 66 24.601562 66.226562 24.851562 C 66.457031 25.101562 66.78125 25.226562 67.203125 25.226562 C 67.484375 25.234375 67.761719 25.167969 68.007812 25.035156 C 68.242188 24.90625 68.429688 24.707031 68.546875 24.464844 C 68.675781 24.210938 68.742188 23.898438 68.742188 23.523438 L 68.742188 20.671875 L 70.058594 20.671875 L 70.058594 26.316406 L 68.804688 26.316406 L 68.804688 24.792969 L 69.027344 25.257812 C 68.839844 25.621094 68.550781 25.914062 68.191406 26.097656 C 67.820312 26.292969 67.40625 26.394531 66.988281 26.390625 Z M 66.988281 26.390625 "/>
<path style=" stroke:none;fill-rule:nonzero;fill:rgb(100%,100%,100%);fill-opacity:1;" d="M 71.035156 21.726562 L 71.035156 20.671875 L 74.789062 20.671875 L 74.789062 21.726562 Z M 73.902344 26.390625 C 73.285156 26.390625 72.808594 26.230469 72.46875 25.910156 C 72.128906 25.589844 71.960938 25.117188 71.960938 24.488281 L 71.960938 19.421875 L 73.28125 19.421875 L 73.28125 24.453125 C 73.28125 24.722656 73.347656 24.929688 73.484375 25.078125 C 73.625 25.226562 73.816406 25.300781 74.0625 25.300781 C 74.355469 25.300781 74.601562 25.222656 74.800781 25.066406 L 75.167969 26.007812 C 75 26.140625 74.808594 26.238281 74.601562 26.292969 C 74.375 26.359375 74.140625 26.390625 73.902344 26.390625 Z M 73.902344 26.390625 "/>
<path style=" stroke:none;fill-rule:nonzero;fill:rgb(100%,100%,100%);fill-opacity:1;" d="M 76.253906 26.316406 L 76.253906 18.472656 L 77.570312 18.472656 L 77.570312 22.191406 L 77.289062 21.726562 C 77.484375 21.371094 77.78125 21.082031 78.144531 20.898438 C 78.523438 20.703125 78.957031 20.609375 79.449219 20.609375 C 79.867188 20.601562 80.277344 20.691406 80.65625 20.871094 C 81.011719 21.050781 81.300781 21.332031 81.492188 21.679688 C 81.695312 22.042969 81.796875 22.507812 81.796875 23.082031 L 81.796875 26.316406 L 80.480469 26.316406 L 80.480469 23.25 C 80.480469 22.75 80.363281 22.375 80.125 22.128906 C 79.890625 21.882812 79.5625 21.757812 79.140625 21.757812 C 78.855469 21.753906 78.574219 21.820312 78.320312 21.949219 C 78.082031 22.078125 77.886719 22.273438 77.765625 22.515625 C 77.636719 22.765625 77.570312 23.082031 77.570312 23.464844 L 77.570312 26.316406 Z M 76.253906 26.316406 "/>
<path style=" stroke:none;fill-rule:nonzero;fill:rgb(100%,100%,100%);fill-opacity:1;" d="M 86.128906 26.390625 C 85.503906 26.390625 84.957031 26.265625 84.492188 26.015625 C 84.039062 25.78125 83.664062 25.421875 83.40625 24.984375 C 83.148438 24.546875 83.019531 24.050781 83.019531 23.492188 C 83.019531 22.929688 83.144531 22.429688 83.394531 21.996094 C 83.636719 21.570312 83.996094 21.214844 84.425781 20.976562 C 84.867188 20.730469 85.367188 20.609375 85.929688 20.609375 C 86.476562 20.609375 86.964844 20.726562 87.394531 20.96875 C 87.820312 21.203125 88.171875 21.554688 88.40625 21.980469 C 88.652344 22.417969 88.773438 22.933594 88.773438 23.527344 C 88.773438 23.582031 88.773438 23.644531 88.769531 23.714844 C 88.765625 23.785156 88.761719 23.851562 88.753906 23.917969 L 84.0625 23.917969 L 84.0625 23.039062 L 88.058594 23.039062 L 87.542969 23.3125 C 87.554688 23.015625 87.484375 22.71875 87.339844 22.457031 C 87.203125 22.214844 87.007812 22.015625 86.765625 21.875 C 86.511719 21.730469 86.222656 21.65625 85.929688 21.664062 C 85.632812 21.65625 85.339844 21.730469 85.082031 21.875 C 84.839844 22.015625 84.644531 22.21875 84.511719 22.460938 C 84.375 22.710938 84.304688 23.007812 84.304688 23.34375 L 84.304688 23.554688 C 84.300781 23.871094 84.378906 24.179688 84.539062 24.453125 C 84.691406 24.714844 84.917969 24.921875 85.191406 25.054688 C 85.492188 25.203125 85.824219 25.273438 86.160156 25.269531 C 86.449219 25.273438 86.742188 25.222656 87.011719 25.121094 C 87.269531 25.019531 87.5 24.859375 87.6875 24.65625 L 88.394531 25.46875 C 88.136719 25.769531 87.808594 26.003906 87.441406 26.152344 C 87.058594 26.308594 86.621094 26.390625 86.128906 26.390625 Z M 86.128906 26.390625 "/>
<path style=" stroke:none;fill-rule:nonzero;fill:rgb(100%,100%,100%);fill-opacity:1;" d="M 90.039062 26.316406 L 90.039062 20.671875 L 91.292969 20.671875 L 91.292969 22.191406 L 91.074219 21.726562 C 91.269531 21.371094 91.570312 21.082031 91.933594 20.898438 C 92.308594 20.703125 92.742188 20.609375 93.234375 20.609375 C 93.652344 20.601562 94.066406 20.691406 94.441406 20.871094 C 94.796875 21.050781 95.089844 21.332031 95.277344 21.679688 C 95.480469 22.042969 95.582031 22.507812 95.582031 23.082031 L 95.582031 26.316406 L 94.265625 26.316406 L 94.265625 23.25 C 94.265625 22.75 94.148438 22.375 93.914062 22.128906 C 93.675781 21.882812 93.347656 21.757812 92.925781 21.757812 C 92.640625 21.753906 92.359375 21.820312 92.105469 21.949219 C 91.867188 22.078125 91.671875 22.273438 91.550781 22.515625 C 91.421875 22.765625 91.355469 23.082031 91.355469 23.464844 L 91.355469 26.316406 Z M 90.039062 26.316406 "/>
<path style=" stroke:none;fill-rule:nonzero;fill:rgb(100%,100%,100%);fill-opacity:1;" d="M 96.511719 21.726562 L 96.511719 20.671875 L 100.265625 20.671875 L 100.265625 21.726562 Z M 99.378906 26.390625 C 98.761719 26.390625 98.28125 26.230469 97.945312 25.910156 C 97.605469 25.589844 97.4375 25.117188 97.4375 24.488281 L 97.4375 19.421875 L 98.753906 19.421875 L 98.753906 24.453125 C 98.753906 24.722656 98.824219 24.929688 98.960938 25.078125 C 99.097656 25.226562 99.289062 25.300781 99.535156 25.300781 C 99.832031 25.300781 100.078125 25.222656 100.273438 25.066406 L 100.644531 26.007812 C 100.476562 26.144531 100.28125 26.238281 100.074219 26.292969 C 99.847656 26.359375 99.613281 26.390625 99.378906 26.390625 Z M 99.378906 26.390625 "/>
<path style=" stroke:none;fill-rule:nonzero;fill:rgb(100%,100%,100%);fill-opacity:1;" d="M 102.394531 19.738281 C 102.167969 19.746094 101.949219 19.664062 101.789062 19.507812 C 101.636719 19.359375 101.550781 19.15625 101.550781 18.945312 C 101.550781 18.730469 101.636719 18.527344 101.789062 18.382812 C 101.945312 18.230469 102.148438 18.152344 102.394531 18.152344 C 102.640625 18.15625 102.839844 18.226562 103 18.371094 C 103.15625 18.507812 103.242188 18.707031 103.238281 18.917969 C 103.242188 19.136719 103.160156 19.347656 103.003906 19.503906 C 102.851562 19.660156 102.648438 19.738281 102.394531 19.738281 Z M 101.730469 26.316406 L 101.730469 20.671875 L 103.046875 20.671875 L 103.046875 26.316406 Z M 101.730469 26.316406 "/>
<path style=" stroke:none;fill-rule:nonzero;fill:rgb(100%,100%,100%);fill-opacity:1;" d="M 107.359375 26.390625 C 106.769531 26.390625 106.242188 26.265625 105.78125 26.015625 C 105.335938 25.777344 104.960938 25.421875 104.703125 24.984375 C 104.441406 24.546875 104.308594 24.050781 104.308594 23.492188 C 104.308594 22.929688 104.441406 22.429688 104.703125 21.996094 C 104.960938 21.566406 105.335938 21.210938 105.78125 20.976562 C 106.242188 20.730469 106.769531 20.609375 107.359375 20.609375 C 107.90625 20.609375 108.390625 20.71875 108.808594 20.941406 C 109.21875 21.15625 109.554688 21.5 109.761719 21.917969 L 108.75 22.507812 C 108.601562 22.257812 108.386719 22.054688 108.132812 21.917969 C 107.890625 21.789062 107.621094 21.722656 107.351562 21.726562 C 107.042969 21.722656 106.742188 21.796875 106.472656 21.941406 C 106.214844 22.082031 106.003906 22.292969 105.859375 22.546875 C 105.714844 22.8125 105.640625 23.128906 105.640625 23.496094 C 105.640625 23.863281 105.714844 24.175781 105.859375 24.441406 C 106.003906 24.699219 106.214844 24.910156 106.472656 25.050781 C 106.742188 25.191406 107.042969 25.265625 107.347656 25.261719 C 107.621094 25.261719 107.890625 25.195312 108.128906 25.070312 C 108.386719 24.933594 108.597656 24.726562 108.746094 24.476562 L 109.757812 25.070312 C 109.546875 25.484375 109.214844 25.824219 108.808594 26.046875 C 108.390625 26.277344 107.90625 26.390625 107.359375 26.390625 Z M 107.359375 26.390625 "/>
<path style=" stroke:none;fill-rule:nonzero;fill:rgb(100%,100%,100%);fill-opacity:1;" d="M 112.597656 26.390625 C 112.175781 26.390625 111.804688 26.316406 111.488281 26.171875 C 111.195312 26.042969 110.941406 25.835938 110.757812 25.570312 C 110.585938 25.3125 110.496094 25.007812 110.5 24.699219 C 110.496094 24.398438 110.574219 24.101562 110.726562 23.839844 C 110.878906 23.585938 111.125 23.386719 111.46875 23.238281 C 111.8125 23.089844 112.269531 23.015625 112.839844 23.015625 L 114.472656 23.015625 L 114.472656 23.894531 L 112.933594 23.894531 C 112.484375 23.894531 112.183594 23.964844 112.027344 24.113281 C 111.875 24.246094 111.792969 24.441406 111.796875 24.644531 C 111.789062 24.871094 111.894531 25.085938 112.082031 25.214844 C 112.269531 25.355469 112.535156 25.429688 112.871094 25.429688 C 113.175781 25.433594 113.476562 25.355469 113.742188 25.207031 C 113.996094 25.058594 114.191406 24.828125 114.292969 24.550781 L 114.515625 25.34375 C 114.390625 25.675781 114.148438 25.949219 113.835938 26.117188 C 113.507812 26.300781 113.09375 26.390625 112.597656 26.390625 Z M 114.367188 26.316406 L 114.367188 25.175781 L 114.292969 24.929688 L 114.292969 22.933594 C 114.292969 22.542969 114.179688 22.242188 113.945312 22.027344 C 113.714844 21.8125 113.363281 21.707031 112.890625 21.707031 C 112.574219 21.707031 112.261719 21.757812 111.957031 21.855469 C 111.675781 21.941406 111.414062 22.082031 111.183594 22.265625 L 110.667969 21.304688 C 110.992188 21.0625 111.359375 20.882812 111.75 20.78125 C 112.171875 20.664062 112.609375 20.605469 113.050781 20.605469 C 113.863281 20.605469 114.496094 20.800781 114.941406 21.191406 C 115.386719 21.585938 115.609375 22.1875 115.609375 23.007812 L 115.609375 26.316406 Z M 114.367188 26.316406 "/>
<path style=" stroke:none;fill-rule:nonzero;fill:rgb(100%,100%,100%);fill-opacity:1;" d="M 116.550781 21.726562 L 116.550781 20.671875 L 120.300781 20.671875 L 120.300781 21.726562 Z M 119.417969 26.390625 C 118.796875 26.390625 118.320312 26.230469 117.980469 25.910156 C 117.644531 25.589844 117.472656 25.117188 117.476562 24.488281 L 117.476562 19.421875 L 118.792969 19.421875 L 118.792969 24.453125 C 118.792969 24.722656 118.859375 24.929688 118.996094 25.078125 C 119.132812 25.226562 119.328125 25.300781 119.574219 25.300781 C 119.867188 25.300781 120.113281 25.222656 120.3125 25.066406 L 120.679688 26.007812 C 120.511719 26.144531 120.320312 26.238281 120.109375 26.292969 C 119.886719 26.359375 119.652344 26.390625 119.417969 26.390625 Z M 119.417969 26.390625 "/>
<path style=" stroke:none;fill-rule:nonzero;fill:rgb(100%,100%,100%);fill-opacity:1;" d="M 124.105469 26.390625 C 123.53125 26.390625 123.015625 26.265625 122.566406 26.015625 C 122.128906 25.773438 121.757812 25.417969 121.503906 24.984375 C 121.242188 24.546875 121.113281 24.050781 121.113281 23.492188 C 121.113281 22.929688 121.242188 22.429688 121.503906 21.996094 C 121.761719 21.566406 122.128906 21.214844 122.566406 20.976562 C 123.015625 20.730469 123.53125 20.609375 124.105469 20.609375 C 124.691406 20.609375 125.207031 20.730469 125.660156 20.976562 C 126.101562 21.210938 126.46875 21.5625 126.726562 21.992188 C 126.980469 22.421875 127.109375 22.921875 127.109375 23.492188 C 127.109375 24.050781 126.980469 24.546875 126.726562 24.984375 C 126.472656 25.417969 126.101562 25.773438 125.660156 26.015625 C 125.207031 26.265625 124.691406 26.390625 124.105469 26.390625 Z M 124.105469 25.257812 C 124.40625 25.265625 124.707031 25.191406 124.972656 25.046875 C 125.226562 24.90625 125.433594 24.691406 125.566406 24.433594 C 125.710938 24.167969 125.785156 23.851562 125.785156 23.492188 C 125.785156 23.128906 125.710938 22.8125 125.566406 22.546875 C 125.429688 22.292969 125.222656 22.082031 124.972656 21.941406 C 124.433594 21.660156 123.792969 21.660156 123.257812 21.941406 C 123.007812 22.082031 122.800781 22.292969 122.664062 22.546875 C 122.515625 22.8125 122.441406 23.128906 122.441406 23.496094 C 122.441406 23.855469 122.515625 24.167969 122.664062 24.4375 C 122.800781 24.691406 123.003906 24.90625 123.257812 25.050781 C 123.519531 25.191406 123.808594 25.265625 124.105469 25.257812 Z M 124.105469 25.257812 "/>
<path style=" stroke:none;fill-rule:nonzero;fill:rgb(100%,100%,100%);fill-opacity:1;" d="M 128.375 26.316406 L 128.375 20.671875 L 129.628906 20.671875 L 129.628906 22.222656 L 129.480469 21.769531 C 129.640625 21.398438 129.921875 21.09375 130.277344 20.902344 C 130.640625 20.707031 131.089844 20.605469 131.632812 20.605469 L 131.632812 21.863281 C 131.582031 21.851562 131.527344 21.84375 131.472656 21.839844 C 131.425781 21.835938 131.375 21.832031 131.328125 21.832031 C 130.828125 21.832031 130.429688 21.980469 130.136719 22.273438 C 129.839844 22.5625 129.691406 23 129.691406 23.578125 L 129.691406 26.316406 Z M 128.375 26.316406 "/>
</g>
</svg>
